<svg id="Layer_1" data-name="Layer 1" xmlns="http://www.w3.org/2000/svg" viewBox="0 0 500 500"><defs><style>.cls-1{fill:#0c0c0a;}.cls-2{fill:#efe929;}.cls-3{font-size:33.65px;stroke:#fcf232;stroke-miterlimit:10;font-family:Bauhaus93, "Bauhaus 93";letter-spacing:0.2em;}.cls-4,.cls-5,.cls-6{fill:#b5b5b1;}.cls-4{opacity:0.54;}.cls-5{opacity:0.65;}</style></defs><title>GTBrand-02</title><path class="cls-1" d="M195.81,217l-3.39,6.67a7.26,7.26,0,0,0-1.79-4.35,5.12,5.12,0,0,0-3.86-1.51,6.16,6.16,0,0,0-5.3,2.65q-1.91,2.66-1.9,7.42,0,10.51,8.6,10.51h2.92v-9.42h-4.57a9.69,9.69,0,0,1-2.13-.16,3,3,0,0,1-1.25-.71v-.45a3.69,3.69,0,0,0,1.31.64,10.56,10.56,0,0,0,2.12.15h4.52v-1h-5.86q-2.7,0-2.7-1.95a2,2,0,0,1,.45-1.31,1.39,1.39,0,0,1,1.09-.55,1.18,1.18,0,0,1,.83.35,1.12,1.12,0,0,1,.35.82c0,.53-.19.84-.58.92l-.44.09q-.21.06-.21.18c0,.16.19.24.59.24h12.6l-2.51,2.45v8.94l2.32,2h-11.1a11.11,11.11,0,0,1-3.81-.56,9.5,9.5,0,0,1-3.05-2,11.53,11.53,0,0,1-3.64-8.94q0-5.79,3.44-9A10.05,10.05,0,0,1,186,216.2a16.67,16.67,0,0,1,4.25.65,16,16,0,0,0,3.23.68A5.34,5.34,0,0,0,195.81,217Zm-4.72,3.9-.33-.24a6.67,6.67,0,0,0-3.77-1.47,4.93,4.93,0,0,0-3.57,1.47,6.27,6.27,0,0,0-1.57,2.85,18.18,18.18,0,0,0-.48,4.64,16.86,16.86,0,0,0,.72,5.61,8.19,8.19,0,0,0,2.67,3.5v.2a7.12,7.12,0,0,1-3-3.53,16.65,16.65,0,0,1-.93-6.17,11.81,11.81,0,0,1,1.62-6.69,5.18,5.18,0,0,1,4.53-2.39,4.94,4.94,0,0,1,4.14,2.11Zm6.9,6.38-1.87,1.87v8.51l3,3.47-7.2-.06-6.54.08c-.41,0-.72,0-.94,0a4.77,4.77,0,0,1-2.3-1h.38a8.53,8.53,0,0,0,3.37.55l.91,0h11.3l-2.5-2.78v-8.89l2.09-2.1Zm-1.09-9.14-3.11,6.1-.43-.2,3.12-6.12Z"/><path class="cls-1" d="M201.05,216.31h8.53l-2.47,2.41v7.84a8.11,8.11,0,0,0,1,.11v-7.76l2-2,.36.32-1.87,1.85v7.57l.6.05c.93.09,1.84.13,2.71.13a25.08,25.08,0,0,0,3.24-.18v-8.35l-2.21-2h8.38l-2.5,2.41v18.91l2.19,2h-8.34l2.48-2.12v-7.7a13,13,0,0,1-3.13.37,31.48,31.48,0,0,1-3.16-.17h-.26v7.67l3,3.45h-9.38l-.47-.49h8.85l-2.47-2.71v-8.34l.53,0c1.6.12,2.75.19,3.46.19a8.64,8.64,0,0,0,3-.48v-.65a27.16,27.16,0,0,1-4,.25c-.81,0-1.4,0-1.78,0l-1.83-.16a2.4,2.4,0,0,0-.42,0v9l2.33,2h-8.39l2.43-2.12v-7.93a2.92,2.92,0,0,0-2.43,1.19l-.38-.18a3.86,3.86,0,0,1,2.81-1.47v-.67a3.84,3.84,0,0,0-3.21,1.55l-.27-.19a4.64,4.64,0,0,1,3.48-3.08v-8.17Zm21,1-1.85,1.79v18.51l3,3.45h-9.42l-.45-.49h8.83l-2.43-2.74V218.94l2-2Z"/><path class="cls-1" d="M234.13,216.07a8.55,8.55,0,0,1,7.05,3.34c1.76,2.23,2.64,5.2,2.64,8.93a12.75,12.75,0,0,1-2.61,8.42,8.61,8.61,0,0,1-7,3.14,9.45,9.45,0,0,1-6.17-2.22q-4-3.26-4-9.67c0-3.65.9-6.55,2.72-8.71A9.1,9.1,0,0,1,234.13,216.07Zm0,1.57q-6.13,0-6.13,10.77,0,10,6,10a4.66,4.66,0,0,0,4.28-2.64q1.47-2.64,1.47-7.72,0-5.74-1.42-8A4.72,4.72,0,0,0,234.13,217.64Zm5.79-.64a9,9,0,0,1,4.1,4.28,15.62,15.62,0,0,1,1.5,7,14.37,14.37,0,0,1-3,9.43,9.61,9.61,0,0,1-7.8,3.59,9.24,9.24,0,0,1-5.77-2.08v-.09a9.29,9.29,0,0,0,5.65,1.65,9.4,9.4,0,0,0,7.47-3.43,13,13,0,0,0,2.92-8.77,16.78,16.78,0,0,0-1.33-6.94,9.55,9.55,0,0,0-3.78-4.45ZM238,220.36l-.31-.18a6.6,6.6,0,0,0-3.19-1q-4.77,0-4.77,9.38,0,6.87,3,9.09l-.17.19a7,7,0,0,1-2.58-3.39,16.75,16.75,0,0,1-.77-5.67q0-10.06,5.29-10.07A4,4,0,0,1,238,220.36Z"/><path class="cls-1" d="M264.18,216.51a12,12,0,0,0-1.51,2.65c-.74,1.81-1.23,2.93-1.47,3.34l-.09.11c-.05-.14-.09-.24-.11-.31a17.27,17.27,0,0,0-.83-2.27,4.49,4.49,0,0,0-1-1.22,5.52,5.52,0,0,0-3.76-1.47,4.87,4.87,0,0,0-3.23,1.08,3.4,3.4,0,0,0-1.29,2.72q0,3,4.59,4.15l3.07.75q6.56,1.58,6.55,6.91a6.49,6.49,0,0,1-2.24,5,8,8,0,0,1-5.55,2,19.5,19.5,0,0,1-4.62-.63l-2.12-.53a9.29,9.29,0,0,0-2.13-.31,4.42,4.42,0,0,0-2.28.71L246,239a24.52,24.52,0,0,0,3.16-6.45l.32.09A6.67,6.67,0,0,0,251.8,237a7.52,7.52,0,0,0,5,1.58,6.12,6.12,0,0,0,3.87-1.12,3.66,3.66,0,0,0,1.43-3,4.31,4.31,0,0,0-2-3.63q-1.43-1-5.88-1.89a9.48,9.48,0,0,1-5-2.23,6.55,6.55,0,0,1,.52-9,7.89,7.89,0,0,1,5.36-1.79,19.65,19.65,0,0,1,4.95.76,8.09,8.09,0,0,0,2,.37,4,4,0,0,0,2-.62Zm0,11.58a6.06,6.06,0,0,1,2.46,5.11,7.58,7.58,0,0,1-2.68,5.87,9.42,9.42,0,0,1-6.53,2.41,14.73,14.73,0,0,1-3.54-.4l-2.91-.71a8.85,8.85,0,0,0-2.17-.25,4.34,4.34,0,0,0-1.91.41l-.22-.52a4.57,4.57,0,0,1,1.93-.44,10.94,10.94,0,0,1,2.48.33l2.8.67a14.83,14.83,0,0,0,3.52.4,8.84,8.84,0,0,0,6.18-2.32,7.29,7.29,0,0,0,2.54-5.59,6.93,6.93,0,0,0-1.95-4.87ZM249,227.43l.62.35c.39.71,1.56,1.3,3.5,1.78l2.92.72a20.06,20.06,0,0,1,4,1.28,3,3,0,0,1,1.41,1.62l-.13.08a5.15,5.15,0,0,0-1.77-1.38,22.4,22.4,0,0,0-3.65-1.07,28.69,28.69,0,0,1-5.26-1.57A2.69,2.69,0,0,1,249,227.43Zm2.27,5.88a6.17,6.17,0,0,0,3.59,4.63v.14a5.54,5.54,0,0,1-4.08-4.68ZM260,220.88a5.87,5.87,0,0,0-4.28-2.12,3.36,3.36,0,0,0-2.29.8,2.59,2.59,0,0,0-.9,2c0,.9.61,1.81,1.83,2.76l.14.09-.09.14c-1.59-.71-2.39-1.74-2.39-3.1a2.93,2.93,0,0,1,1-2.3,3.86,3.86,0,0,1,2.65-.89,5.46,5.46,0,0,1,2.73.66,4,4,0,0,1,1.72,1.86Zm5.3-3.61-.16.27a25.8,25.8,0,0,0-1.27,2.4c-.85,1.78-1.33,2.77-1.44,3l-.09.12-.43-.18.07-.16c.35-.8.86-1.84,1.52-3.12l1.24-2.4.09-.14Z"/><path class="cls-1" d="M288,216.31l-.22.42-1.23,2.18a16.06,16.06,0,0,0-1.18,2.9l0,.09-.18-.13-.05-.23a5.32,5.32,0,0,0-1.5-2.87,4.64,4.64,0,0,0-3-.8c-.54,0-1.08,0-1.63.07h-.22v19.67l2.14,2h-8.29l2.54-2.12V219.41h-1.29a3.84,3.84,0,0,0-2.65.73,3.87,3.87,0,0,0-.94,2.59h-.47a4.51,4.51,0,0,1,1.1-3,4.27,4.27,0,0,1,3-.84l1.09,0h.2v-.89a15.53,15.53,0,0,0-1.76-.11,4.86,4.86,0,0,0-3.37,1,4.54,4.54,0,0,0-1.15,3.22h-.21a33.76,33.76,0,0,0-2.42-5.63l-.11-.18Zm-3.7,4a5.9,5.9,0,0,0-3.27-.9c-.28,0-.57,0-.87.05l.07,18.24,2.89,3.41h-9.27l-.42-.49h8.69l-2.43-2.78v-18.9l1,0a7.72,7.72,0,0,1,2.5.28A2.14,2.14,0,0,1,284.28,220.28Zm4.84-2.83a21.07,21.07,0,0,0-2.63,5.3l-.07.18-.4-.34.06-.16a17.46,17.46,0,0,1,2.59-5.23l.09-.11Z"/><path class="cls-1" d="M318.77,216.31l-.22.42-1.23,2.18a16.06,16.06,0,0,0-1.18,2.9l0,.09-.18-.13-.05-.23a5.32,5.32,0,0,0-1.5-2.87,4.64,4.64,0,0,0-3-.8c-.54,0-1.08,0-1.63.07h-.22v19.67l2.14,2H303.4l2.54-2.12V219.41h-1.29a3.84,3.84,0,0,0-2.65.73,3.87,3.87,0,0,0-.94,2.59h-.47a4.51,4.51,0,0,1,1.1-3,4.27,4.27,0,0,1,3-.84l1.09,0h.2v-.89a15.53,15.53,0,0,0-1.76-.11,4.86,4.86,0,0,0-3.37,1,4.5,4.5,0,0,0-1.14,3.22h-.22a33.76,33.76,0,0,0-2.42-5.63l-.1-.18Zm-3.7,4a5.9,5.9,0,0,0-3.27-.9c-.27,0-.57,0-.87.05l.08,18.24,2.88,3.41h-9.27l-.42-.49h8.69l-2.43-2.78v-18.9l1,0a7.72,7.72,0,0,1,2.5.28A2.11,2.11,0,0,1,315.07,220.28Zm4.84-2.83a21.07,21.07,0,0,0-2.63,5.3l-.07.18-.4-.34.06-.16a17.7,17.7,0,0,1,2.59-5.23l.09-.11Z"/><path class="cls-1" d="M320.89,218.49a18.17,18.17,0,0,1,9.26-2.49,11.2,11.2,0,0,1,6.34,1.67,5,5,0,0,1,2.49,4.25,5.13,5.13,0,0,1-1.63,3.73,9.65,9.65,0,0,1-4.46,2.35,32.35,32.35,0,0,0,3.4,6.71,21.6,21.6,0,0,0,4.31,5l-.27.09a23.27,23.27,0,0,0-5.3,2.61l-.27.18-.09-.58a52.45,52.45,0,0,0-3.25-11.9l-.08-.18a13.5,13.5,0,0,1-3.35.92l-.15,0v6.79l3.2,3.41h-9.38l-.29-.49H330l-2.63-2.8v-7.31l.38,0a12.21,12.21,0,0,0,3.47-.82l-.13-.27-.18-.53s0-.11-.09-.22a31,31,0,0,1-4.25.71l-.2,0v8.09l2.07,2.16h-8l2.36-2.16v-6.1l-.14,0a17.21,17.21,0,0,0-1.91.53l-.15.05-.16-.36a11.36,11.36,0,0,1,1.25-.42l1-.23.14,0v-.94a9.62,9.62,0,0,0-2.67.47l-.2.07a10,10,0,0,1,.37-1.18c0-.05.11-.32.25-.81l.05-.17c.55,0,1,.06,1.27.06a6.42,6.42,0,0,0,.91-.06V219.4a10.62,10.62,0,0,0-1.72-.86Zm5.48-.47v9.78a5.31,5.31,0,0,0,1-.09v-8.93a9.28,9.28,0,0,1,2.4-.27c2.35,0,4,.77,4.8,2.32a9.54,9.54,0,0,0-2.35-1.5,6.59,6.59,0,0,0-2.44-.41,8,8,0,0,0-1.94.22v8.57l.2,0a11.85,11.85,0,0,0,5.31-2.06,4.51,4.51,0,0,0,1.73-3.66,4.18,4.18,0,0,0-1.56-3.33,5.93,5.93,0,0,0-3.94-1.31A6.57,6.57,0,0,0,326.37,218Zm8.77,10.88a21.75,21.75,0,0,0,4,7.31,19,19,0,0,0,4.59,4,28.78,28.78,0,0,0-7.8,3.38l-.16.11-.37-.29a26,26,0,0,1,7.39-3.34q-5.22-3.48-8.22-11.14l-.11-.31q5.55-2.1,5.55-6.42a7,7,0,0,0-1.43-3.89,5.51,5.51,0,0,1,1.83,4.25Q340.45,226.74,335.14,228.9Z"/><path class="cls-1" d="M360.45,216.31l-1.89,2.14,3,7.91.72-.4-2.68-7.15,1.92-2.21.47.2-1.83,2.12,2.54,6.77a2.43,2.43,0,0,0,.25-.2l.6-.51a5.14,5.14,0,0,0,.69-.61,12.81,12.81,0,0,0,1.45,3.7c-.35,0-.6,0-.76,0a4.48,4.48,0,0,0-2.52.55l3.28,8.9,2.72,2.11h-9.16l2.51-2.11-2-5.29a19.83,19.83,0,0,0-3.06,3.83l-.42-.11a23.22,23.22,0,0,1,3.19-4l.15-.18-.35-.8a16,16,0,0,0-3.57,4.18l-.33-.53c-.63-1-1.43-2.15-2.41-3.43l-.18-.22a13,13,0,0,0-1.4,5.05,4.34,4.34,0,0,0,.39,1.93,17.62,17.62,0,0,0,1.88,2.64l.4.51h-9.8l-.36-.49h9.23l-.31-.38A11.87,11.87,0,0,1,351.2,238a4.63,4.63,0,0,1-.37-1.9,16.17,16.17,0,0,1,1.51-5.51l-.8-.84q-.24.59-.6,1.71l-.6,1.85a8.09,8.09,0,0,0-.49,2.46,3.68,3.68,0,0,0,.35,1.69,8.78,8.78,0,0,0,1.45,1.83l.32.35H342.9A10.86,10.86,0,0,0,347,236a28.59,28.59,0,0,0,3-7l.08-.26a5,5,0,0,0-2.78-1,12.63,12.63,0,0,0,1.54-3.1c.17.16.28.25.31.29l.82.76a9,9,0,0,0,1,.82l.32-.8-.21-.18q-.91-.8-1.53-1.29l-.16-.13.29-.39a13.25,13.25,0,0,1,1.85,1.47l2.47-6.79-1.93-2.07Zm-5.3,3.72-2.89,7.62a25.13,25.13,0,0,1,2.38,2.79l.84,1.17.18.23a1,1,0,0,0,.18-.2l.25-.31.2-.23a18.31,18.31,0,0,0-3-3.54l2.33-6.13Zm.82,2.1-2,5.27.18.21.75.84a19.1,19.1,0,0,1,1.52,2l.18.27a16.6,16.6,0,0,1,1.85-1.94Zm9.85,3.11a19.46,19.46,0,0,0,2,4.48l-.45-.06-1.47-.12c-.66-.06-1.15-.09-1.45-.09h-.36l3,8,4,3.58h-10.5l-.35-.49h9.64l-3.27-2.89-3.23-8.54a5.47,5.47,0,0,1,1.42-.17,16,16,0,0,1,2.17.17l-.21-.4a15.34,15.34,0,0,1-1.56-3.87Z"/><path class="cls-1" d="M371.77,186h8.6l-2.43,5.49v42l2.28,4.28h-8.45l2.52-4.64V191Zm9.42,2.3-1.85,4.08v41.11l3,7.59H373L372.5,240h8.81l-2.48-6.09V192l2.05-4.52Z"/><path class="cls-1" d="M403.83,216.31a7.38,7.38,0,0,0-2.67,2,7.69,7.69,0,0,0-.9,4.16v17.16h-3.07L388.63,223v9.85l0,.82.21,2.61a4.07,4.07,0,0,0,1.66,2.69l.14.12c-1.67-.55-2.5-2.34-2.5-5.35V222.08l-1-1.9v10.45c0,3.31.21,5.48.65,6.51a4.36,4.36,0,0,0,3.06,2.25l1.58,1.69h-9.83l-.29-.49h9.09l-.94-1H382a5.11,5.11,0,0,0,2.94-2.14,10.51,10.51,0,0,0,.73-4.61V218.32l-2.42-2h9.18L389.88,218l8.78,17.13V233l-7.53-14.66,2.54-1.72.34.35-2.25,1.52,6.9,13.54v-9.44a11.11,11.11,0,0,0-.52-4.22,5.17,5.17,0,0,0-2.55-2Zm.63,1.34-.32.55a2.78,2.78,0,0,0-1.9,1.2,6.47,6.47,0,0,0-.5,3v18.71h-3.9l-.23-.49h3.64v-18a6.78,6.78,0,0,1,.67-3.56A3.63,3.63,0,0,1,404.46,217.65Z"/><ellipse class="cls-2" cx="124.08" cy="219.86" rx="35.53" ry="33.21"/><rect x="73.5" y="213.62" width="99.08" height="5.89" transform="translate(112.07 465.39) rotate(-147.87)"/><rect x="127.95" y="231.54" width="49.8" height="8.25" rx="4.13" transform="translate(432.98 215.07) rotate(118.76)"/><rect x="144.46" y="236.21" width="30.6" height="7.13" rx="3.56" transform="translate(447.18 219.53) rotate(119.65)"/><rect x="69.77" y="195.23" width="48.28" height="8" rx="4" transform="translate(-125.93 185.68) rotate(-61.24)"/><rect x="72.37" y="191.79" width="29.67" height="6.91" rx="3.45" transform="translate(-125.62 174.45) rotate(-60.35)"/><rect x="117.36" y="185.5" width="5.21" height="65.22" transform="translate(94.77 -29.54) rotate(23)"/><text class="cls-3" transform="translate(76.99 241.71) rotate(-12.94) scale(1.31 1)"><tspan xml:space="preserve"> RR</tspan></text><ellipse class="cls-4" cx="312.5" cy="197" rx="17.5" ry="4.59"/><ellipse class="cls-5" cx="337.47" cy="191.14" rx="16.47" ry="8.86"/><ellipse class="cls-6" cx="350.45" cy="186.87" rx="16.47" ry="8.86"/><ellipse class="cls-6" cx="369.58" cy="177.87" rx="3.67" ry="3.51" transform="translate(-40.46 168.12) rotate(-24.34)"/><rect class="cls-1" x="209" y="227" width="32" height="2"/></svg>